<?xml version="1.0" encoding="UTF-8"?>
<svg id="Layer_2" xmlns="http://www.w3.org/2000/svg" version="1.1" viewBox="0 0 663.2 911.5">
  <!-- Generator: Adobe Illustrator 29.5.1, SVG Export Plug-In . SVG Version: 2.1.0 Build 141)  -->
  <defs>
    <style>
      .st0 {
        fill: #609;
      }
    </style>
  </defs>
  <g id="Layer_1-2">
    <path class="st0" d="M339,0c130.4,8.1,206.5,148.7,136.4,261.9-20.2,32.6-38.6,37.3-64.3,59.7-24.4,21.3-11.6,43.6,20.1,40.1,95.4-10.7,215.3-99.7,231.6,58.1,11.8,114-195.4,69.9-217.9,131.6-7.1,19.4-1,31.2,9.4,47,28.9,44,152.4,171.7,160.1,208.9,12.7,60.6-86,139-141.9,82.8-26.2-26.3-105.4-141-128.1-150.9-16.4-7.2-26.7.5-37.9,11.9-31.1,31.4-106,147.8-140,158-56.5,17.1-146.4-59.4-102.9-125.9,40.8-62.3,104.9-120.6,146.2-182.8,20.8-31.3,17.6-59.8-20.3-73.4-39.3-14-143-24.8-169.1-49C7.8,466.3,1.7,450,0,433c0-.7,0-1.4,0-2,14.5-175.7,133.8-75,235.6-68.1,20.3,1.4,37.8-11.3,25.8-31.8-7.3-12.5-50.8-36.5-67.2-58.8C111.9,160.8,188,9.2,324,0h15Z"/>
  </g>
</svg>